<?xml version="1.0" standalone="no"?>
<!DOCTYPE svg PUBLIC "-//W3C//DTD SVG 20010904//EN"
 "http://www.w3.org/TR/2001/REC-SVG-20010904/DTD/svg10.dtd">
<svg version="1.0" xmlns="http://www.w3.org/2000/svg"
 width="512.000000pt" height="512.000000pt" viewBox="0 0 512.000000 512.000000"
 preserveAspectRatio="xMidYMid meet">
<metadata>
Created by potrace 1.14, written by Peter Selinger 2001-2017
</metadata>
<g transform="translate(0.000000,512.000000) scale(0.100000,-0.100000)"
fill="#000000" stroke="none">
<path d="M0 2560 l0 -2560 2560 0 2560 0 0 2560 0 2560 -2560 0 -2560 0 0
-2560z m1980 473 c-105 -79 -192 -198 -238 -325 -24 -67 -27 -86 -27 -228 0
-133 3 -165 22 -225 39 -123 135 -256 243 -338 l35 -27 -98 0 -97 0 -46 42
c-108 99 -194 281 -215 452 -28 224 50 462 201 617 l58 59 98 0 99 0 -35 -27z
m2232 -41 c120 -127 187 -293 195 -483 11 -223 -58 -411 -205 -561 l-56 -58
-93 0 -92 0 87 88 c92 92 138 160 175 258 20 53 22 77 22 239 0 162 -2 186
-22 239 -37 98 -83 166 -175 259 l-87 87 93 0 94 0 64 -68z m-3197 -27 c74
-20 122 -56 158 -123 72 -132 29 -335 -82 -391 l-40 -21 85 -174 c46 -96 84
-177 84 -181 0 -3 -46 -5 -103 -5 l-103 0 -75 168 -75 167 -44 0 -45 0 -3
-167 -2 -168 -95 0 -95 0 0 455 0 455 188 0 c137 0 204 -4 247 -15z"/>
<path d="M770 2690 l0 -130 79 0 c44 0 91 4 106 10 72 27 72 213 0 240 -15 6
-62 10 -106 10 l-79 0 0 -130z"/>
</g>
</svg>
